<svg version="1.1" id="Layer_1" xmlns="http://www.w3.org/2000/svg" xmlns:xlink="http://www.w3.org/1999/xlink" x="0px" y="0px"
	 width="100%" viewBox="0 0 800 800" enable-background="new 0 0 800 800" xml:space="preserve">
<path fill="#0D141E" opacity="1.000000" stroke="none" 
	d="
M353.000000,801.000000 
	C235.333328,801.000000 118.166664,801.000000 1.000000,801.000000 
	C1.000000,534.333313 1.000000,267.666656 1.000000,1.000000 
	C267.666656,1.000000 534.333313,1.000000 801.000000,1.000000 
	C801.000000,267.666656 801.000000,534.333313 801.000000,801.000000 
	C651.833313,801.000000 502.666656,801.000000 353.000000,801.000000 
M523.500000,534.272339 
	C556.487305,534.272034 589.474670,534.277100 622.461975,534.266785 
	C628.963257,534.264771 629.233826,533.994812 629.234314,527.518250 
	C629.240479,443.217316 629.240234,358.916412 629.235046,274.615479 
	C629.234619,268.001495 628.985962,267.734680 622.593140,267.733826 
	C560.450378,267.725647 498.307556,267.725952 436.164764,267.734375 
	C429.734955,267.735260 429.245239,268.202850 429.244507,274.484192 
	C429.234802,358.785126 429.235229,443.086090 429.243347,527.387024 
	C429.243958,533.773132 429.729218,534.261719 436.033234,534.264709 
	C464.855499,534.278503 493.677734,534.271912 523.500000,534.272339 
M262.701569,294.500214 
	C262.701233,287.501831 262.529816,280.497772 262.763611,273.507202 
	C262.907745,269.198303 261.342194,267.581055 256.970123,267.618042 
	C238.642105,267.773163 220.310928,267.790619 201.983444,267.606995 
	C197.396027,267.561035 195.936584,269.155975 195.942123,273.718445 
	C196.045258,358.533112 196.054489,443.347992 195.924683,528.162598 
	C195.917068,533.143127 197.701660,534.445862 202.362579,534.395508 
	C220.189941,534.202942 238.020615,534.324463 255.850052,534.314270 
	C262.372284,534.310608 262.696686,533.991516 262.698181,527.617676 
	C262.705048,498.457397 262.701599,469.297089 262.701843,440.136810 
	C262.701874,438.340454 262.701843,436.544098 262.701843,434.579926 
	C285.060913,434.579926 306.946747,434.579926 329.268311,434.579926 
	C329.268311,436.634277 329.268311,438.431824 329.268341,440.229401 
	C329.268585,469.556335 329.328278,498.883514 329.205872,528.209961 
	C329.187225,532.674316 330.612000,534.443176 335.266846,534.394409 
	C353.427521,534.204285 371.592926,534.190125 389.753113,534.404358 
	C394.574524,534.461243 396.109375,532.838928 396.103088,528.034912 
	C395.992432,443.386902 396.025482,358.738678 396.018097,274.090515 
	C396.017578,268.050659 395.635315,267.690643 389.378296,267.686157 
	C371.715485,267.673492 354.052673,267.677124 336.389862,267.684692 
	C329.559204,267.687622 329.273651,267.963043 329.271942,274.667053 
	C329.264557,303.827362 329.268402,332.987640 329.268158,362.147949 
	C329.268158,363.920013 329.268127,365.692108 329.268127,367.516418 
	C306.821960,367.516418 285.030792,367.516418 262.701569,367.516418 
	C262.701569,343.403503 262.701569,319.451874 262.701569,294.500214 
z"/>
<path fill="#00EA64" opacity="1.000000" stroke="none" 
	d="
M523.000000,534.272461 
	C493.677734,534.271912 464.855499,534.278503 436.033234,534.264709 
	C429.729218,534.261719 429.243958,533.773132 429.243347,527.387024 
	C429.235229,443.086090 429.234802,358.785126 429.244507,274.484192 
	C429.245239,268.202850 429.734955,267.735260 436.164764,267.734375 
	C498.307556,267.725952 560.450378,267.725647 622.593140,267.733826 
	C628.985962,267.734680 629.234619,268.001495 629.235046,274.615479 
	C629.240234,358.916412 629.240479,443.217316 629.234314,527.518250 
	C629.233826,533.994812 628.963257,534.264771 622.461975,534.266785 
	C589.474670,534.277100 556.487305,534.272034 523.000000,534.272461 
z"/>
<path fill="#FEFEFE" opacity="1.000000" stroke="none" 
	d="
M262.701569,295.000244 
	C262.701569,319.451874 262.701569,343.403503 262.701569,367.516418 
	C285.030792,367.516418 306.821960,367.516418 329.268127,367.516418 
	C329.268127,365.692108 329.268158,363.920013 329.268158,362.147949 
	C329.268402,332.987640 329.264557,303.827362 329.271942,274.667053 
	C329.273651,267.963043 329.559204,267.687622 336.389862,267.684692 
	C354.052673,267.677124 371.715485,267.673492 389.378296,267.686157 
	C395.635315,267.690643 396.017578,268.050659 396.018097,274.090515 
	C396.025482,358.738678 395.992432,443.386902 396.103088,528.034912 
	C396.109375,532.838928 394.574524,534.461243 389.753113,534.404358 
	C371.592926,534.190125 353.427521,534.204285 335.266846,534.394409 
	C330.612000,534.443176 329.187225,532.674316 329.205872,528.209961 
	C329.328278,498.883514 329.268585,469.556335 329.268341,440.229401 
	C329.268311,438.431824 329.268311,436.634277 329.268311,434.579926 
	C306.946747,434.579926 285.060913,434.579926 262.701843,434.579926 
	C262.701843,436.544098 262.701874,438.340454 262.701843,440.136810 
	C262.701599,469.297089 262.705048,498.457397 262.698181,527.617676 
	C262.696686,533.991516 262.372284,534.310608 255.850052,534.314270 
	C238.020615,534.324463 220.189941,534.202942 202.362579,534.395508 
	C197.701660,534.445862 195.917068,533.143127 195.924683,528.162598 
	C196.054489,443.347992 196.045258,358.533112 195.942123,273.718445 
	C195.936584,269.155975 197.396027,267.561035 201.983444,267.606995 
	C220.310928,267.790619 238.642105,267.773163 256.970123,267.618042 
	C261.342194,267.581055 262.907745,269.198303 262.763611,273.507202 
	C262.529816,280.497772 262.701233,287.501831 262.701569,295.000244 
z"/>
</svg>