<?xml version="1.0" standalone="no"?>
<!DOCTYPE svg PUBLIC "-//W3C//DTD SVG 20010904//EN"
 "http://www.w3.org/TR/2001/REC-SVG-20010904/DTD/svg10.dtd">
<svg version="1.0" xmlns="http://www.w3.org/2000/svg"
 width="512.000000pt" height="512.000000pt" viewBox="0 0 512.000000 512.000000"
 preserveAspectRatio="xMidYMid meet">

<g transform="translate(0.000000,512.000000) scale(0.100000,-0.100000)"
fill="#000000" stroke="none">
<path d="M10 2565 l0 -2555 2555 0 2555 0 0 2555 0 2555 -2555 0 -2555 0 0
-2555z m3320 1248 c36 -17 79 -47 97 -65 40 -42 611 -1007 635 -1073 25 -72
23 -167 -6 -235 -34 -81 -592 -1019 -629 -1058 -18 -19 -59 -48 -92 -65 l-60
-32 -700 -3 c-685 -2 -701 -2 -733 18 -52 32 -74 76 -69 138 4 54 32 96 82
125 14 9 205 13 685 17 l665 5 287 485 c158 267 287 490 287 495 0 6 -129 228
-287 495 l-287 485 -665 5 c-632 5 -667 6 -697 24 -95 58 -95 198 -1 256 32
20 48 20 728 18 l695 -3 65 -32z m-563 -569 c70 -57 80 -140 26 -205 -51 -60
-38 -59 -675 -59 -551 0 -585 1 -625 19 -45 21 -83 78 -83 125 0 67 45 127
109 147 14 4 292 7 618 6 l591 -2 39 -31z m-376 -557 c89 -59 89 -185 0 -244
l-34 -23 -606 0 c-583 0 -607 1 -638 20 -87 52 -89 188 -4 246 l36 24 606 0
606 0 34 -23z m365 -563 c49 -36 67 -70 68 -123 1 -54 -17 -88 -68 -125 -27
-21 -37 -21 -634 -21 l-607 0 -36 23 c-38 23 -69 81 -69 125 0 12 9 41 20 65
15 32 30 47 62 62 41 19 66 20 640 17 585 -2 597 -2 624 -23z"/>
</g>
</svg>
