<svg version="1.1" id="Layer_1" xmlns="http://www.w3.org/2000/svg" xmlns:xlink="http://www.w3.org/1999/xlink" x="0px" y="0px"
	 width="100%" viewBox="0 0 741 276" enable-background="new 0 0 741 276" xml:space="preserve">
<path fill="#FEFEFE" opacity="1.000000" stroke="none" 
	d="
M1.000000,25.000000 
	C1.000000,17.001801 1.000000,9.003601 1.000000,1.004051 
	C247.942612,1.002701 494.885223,1.002701 741.913940,1.002701 
	C741.913940,92.921837 741.913940,184.843781 741.913940,276.882874 
	C495.000031,276.882874 248.000031,276.882874 1.000000,276.882874 
	C1.000000,230.578140 1.000000,184.255112 1.369411,137.642670 
	C4.203371,164.663437 12.693050,189.962296 27.909954,212.766373 
	C46.560444,240.715988 71.582047,261.078674 102.785271,273.718292 
	C110.163734,276.707123 117.728119,277.165710 125.184471,274.285461 
	C159.882141,260.882507 186.791885,237.971481 205.856888,206.226456 
	C221.329407,180.463196 228.627579,152.279221 228.354080,122.089005 
	C228.076447,91.442787 228.297165,60.792103 228.287186,30.143377 
	C228.284332,21.392937 226.424927,18.731831 218.034866,16.929380 
	C201.482101,13.373321 184.968506,9.483248 168.267105,6.798914 
	C114.820000,-1.791378 62.150326,3.022531 10.160781,17.233755 
	C6.218006,18.311502 2.584966,20.027485 1.595032,24.737762 
	C1.363529,24.706532 1.000000,25.000000 1.000000,25.000000 
M335.539978,155.501709 
	C335.539978,149.091278 335.539978,142.680832 335.539978,136.163040 
	C341.343964,136.163040 346.377960,136.642883 351.284760,136.057007 
	C359.876099,135.031235 365.134979,138.478897 370.093964,145.549133 
	C380.501282,160.387375 391.831573,174.600159 403.201324,188.733139 
	C409.874481,197.028091 419.266998,200.288391 429.780731,200.280914 
	C447.274689,200.268463 464.768677,200.200027 482.262268,200.088760 
	C483.849060,200.078674 485.432770,199.586456 487.017914,199.318130 
	C487.000549,198.761795 486.983185,198.205475 486.965790,197.649155 
	C484.123474,197.360336 481.275024,197.121475 478.440063,196.772705 
	C471.765503,195.951553 469.394043,193.460251 469.018951,186.813919 
	C468.643585,180.162262 468.083954,173.506805 468.064484,166.851669 
	C467.971313,135.019989 468.009827,103.187782 468.076172,71.355919 
	C468.083435,67.872093 468.523010,64.384941 468.845062,60.907021 
	C469.312531,55.858582 472.186127,53.168182 477.158051,52.496475 
	C478.910461,52.259727 480.627045,51.757885 482.359985,51.377083 
	C482.331970,50.906513 482.303986,50.435940 482.275970,49.965370 
	C481.080017,49.691635 479.884216,49.181377 478.688049,49.180458 
	C465.531311,49.170330 452.374054,49.200512 439.218353,49.347229 
	C437.898010,49.361958 436.587006,50.213375 435.271667,50.676491 
	C436.496887,51.929104 437.442627,52.117668 438.396393,52.247169 
	C447.218933,53.445103 449.540955,55.955250 449.934814,64.783241 
	C450.001648,66.281082 450.013367,67.782448 450.011230,69.282135 
	C449.965454,101.613846 450.021362,133.946320 449.786133,166.276688 
	C449.729431,174.074371 449.099335,181.921234 447.997986,189.640625 
	C447.160919,195.507370 443.844635,197.589066 438.333893,195.280167 
	C432.616028,192.884506 426.346924,190.047440 422.363129,185.580368 
	C406.778198,168.104767 392.001617,149.908249 376.883240,131.930450 
	C378.304047,130.381058 378.932709,129.624115 379.633881,128.941711 
	C388.571716,120.242874 396.233276,110.662331 399.540649,98.358627 
	C403.512482,83.583237 401.376190,70.092819 389.397614,59.617714 
	C382.593323,53.667469 373.987183,50.462887 365.134949,50.113605 
	C345.186371,49.326492 325.199402,49.492626 305.227448,49.368019 
	C304.065948,49.360767 302.899048,50.218140 301.734680,50.673138 
	C303.304169,51.987373 304.575989,52.177910 305.853363,52.317303 
	C316.286652,53.455814 318.439819,55.729195 318.878448,66.096855 
	C318.913666,66.929382 318.964630,67.762360 318.964294,68.595116 
	C318.949219,103.925949 318.985535,139.257004 318.845276,174.587357 
	C318.825531,179.556412 318.053925,184.536774 317.420471,189.485031 
	C316.809326,194.258972 314.099243,196.905426 309.098389,197.073120 
	C307.709167,197.119705 306.338196,197.712601 303.882324,198.321976 
	C309.849396,200.914261 351.810913,200.404388 354.778259,197.682587 
	C351.652283,197.372452 349.111481,197.130234 346.572906,196.866653 
	C339.300140,196.111481 337.095978,194.248627 336.639313,186.963196 
	C336.003937,176.826263 335.881805,166.657181 335.539978,155.501709 
M630.585571,167.016571 
	C626.577881,184.049011 617.828003,191.594910 600.421265,192.976227 
	C597.100098,193.239761 593.768677,193.529739 590.441467,193.536255 
	C564.821350,193.586426 543.875366,183.657120 529.485168,162.438385 
	C512.439819,137.304581 512.582153,110.186699 524.025208,82.954254 
	C528.304199,72.771095 536.014648,64.563972 546.449036,60.432274 
	C568.345459,51.761921 590.436401,51.072685 612.379272,60.929787 
	C622.750183,65.588570 627.833130,73.538361 628.453979,84.694183 
	C628.553955,86.489708 629.142090,88.258064 629.504578,90.038986 
	C630.161255,89.996063 630.817993,89.953133 631.474670,89.910210 
	C632.092773,77.392044 632.710876,64.873871 633.332947,52.275482 
	C628.244446,51.580643 623.766235,51.153156 619.360474,50.335575 
	C600.598206,46.853855 581.799927,45.000874 562.744202,47.838223 
	C531.209839,52.533588 508.860840,72.466057 500.933167,103.185417 
	C492.834839,134.566238 502.804871,167.312866 527.439270,185.143051 
	C557.372803,206.808716 590.830505,206.187836 624.961975,197.904007 
	C626.482727,197.534912 628.522278,195.841904 628.818115,194.446976 
	C630.780762,185.193619 632.367798,175.859100 633.951294,166.529663 
	C634.075439,165.798462 633.243347,164.904968 632.855652,164.086884 
	C632.155884,164.796249 631.456116,165.505615 630.585571,167.016571 
M686.901428,160.499847 
	C686.901428,148.100601 686.901428,135.701355 686.901428,124.140747 
	C697.618835,124.140747 707.444092,123.784813 717.228638,124.262207 
	C724.088257,124.596886 726.708069,127.779518 727.693298,134.740555 
	C727.905212,136.237671 728.078125,137.740280 728.269043,139.240356 
	C728.867371,139.247253 729.465698,139.254135 730.064026,139.261032 
	C730.981140,129.634033 731.898254,120.007019 732.864990,109.858940 
	C729.732788,111.808937 727.475281,114.354622 725.038269,114.539978 
	C712.503174,115.493416 699.921875,115.840668 687.293579,116.402390 
	C687.293579,95.962044 687.293579,76.589577 687.293579,56.621998 
	C697.835938,57.084507 707.986267,57.240498 718.082764,58.060104 
	C726.888550,58.774933 729.290955,61.488842 730.540588,70.046097 
	C730.748779,71.471466 731.227783,72.857285 731.581665,74.261375 
	C732.133972,74.214615 732.686279,74.167862 733.238647,74.121101 
	C734.175354,65.458244 735.112061,56.795391 736.017029,48.425858 
	C730.583679,48.952564 725.808716,49.825127 721.036987,49.807312 
	C700.049561,49.728954 679.063416,49.366158 658.075989,49.200558 
	C656.301636,49.186558 654.521729,49.868851 652.744446,50.227665 
	C652.840271,50.694126 652.936035,51.160587 653.031860,51.627048 
	C653.653564,51.780262 654.267456,52.013710 654.898071,52.074856 
	C667.826050,53.328308 669.680664,55.339836 669.693420,68.116020 
	C669.708191,82.943878 669.802063,97.771988 669.741028,112.599503 
	C669.646973,135.418137 669.782532,158.245270 669.170715,181.051361 
	C668.810425,194.476517 668.245728,194.461365 655.796143,198.294296 
	C657.275452,199.192825 658.890198,199.872391 660.506287,199.875443 
	C669.158936,199.891861 677.813171,199.603256 686.464661,199.675980 
	C701.287170,199.800537 716.108215,200.103210 730.929504,200.355957 
	C735.446167,200.432968 738.171936,198.525330 738.741272,193.834061 
	C739.402832,188.383041 740.269836,182.956482 740.892395,177.501572 
	C741.058716,176.044220 740.658081,174.522171 740.517761,173.029816 
	C739.986694,172.983734 739.455627,172.937653 738.924561,172.891571 
	C738.531311,174.319977 738.014343,175.727158 737.765198,177.180252 
	C736.289246,185.786255 731.542297,191.209106 722.594421,191.654938 
	C714.304260,192.067978 705.938354,192.289032 697.681091,191.638840 
	C690.443420,191.068924 687.499451,187.230087 687.087219,179.487808 
	C686.768677,173.505447 686.945068,167.496719 686.901428,160.499847 
z"/>
<path fill="#04206A" opacity="1.000000" stroke="none" 
	d="
M1.826536,24.768995 
	C2.584966,20.027485 6.218006,18.311502 10.160781,17.233755 
	C62.150326,3.022531 114.820000,-1.791378 168.267105,6.798914 
	C184.968506,9.483248 201.482101,13.373321 218.034866,16.929380 
	C226.424927,18.731831 228.284332,21.392937 228.287186,30.143377 
	C228.297165,60.792103 228.076447,91.442787 228.354080,122.089005 
	C228.627579,152.279221 221.329407,180.463196 205.856888,206.226456 
	C186.791885,237.971481 159.882141,260.882507 125.184471,274.285461 
	C117.728119,277.165710 110.163734,276.707123 102.785271,273.718292 
	C71.582047,261.078674 46.560444,240.715988 27.909954,212.766373 
	C12.693050,189.962296 4.203371,164.663437 1.369411,137.176636 
	C1.000000,134.958328 1.000000,132.916672 1.335530,130.178162 
	C1.722886,94.577217 1.774711,59.673103 1.826536,24.768995 
M30.875563,26.700230 
	C30.584047,26.715439 30.292530,26.730646 29.199022,26.715561 
	C28.136295,26.761740 27.073570,26.807919 25.754473,26.584713 
	C25.526999,26.783934 25.299524,26.983154 24.768667,27.598066 
	C24.284761,28.027697 23.800858,28.457327 22.676268,29.148659 
	C21.821888,29.847691 20.967510,30.546724 19.891209,31.899244 
	C19.537333,34.157158 19.183456,36.415070 19.643444,39.266327 
	C19.923609,39.451321 20.203775,39.636311 20.060633,40.222786 
	C19.771561,40.476982 19.482489,40.731178 18.635290,41.312164 
	C18.781994,42.199936 18.928698,43.087711 19.601906,44.362350 
	C20.401917,45.597740 21.201925,46.833134 22.507685,48.575462 
	C23.211031,47.818146 23.914379,47.060829 24.571775,45.709377 
	C24.758789,45.145687 24.945803,44.582001 25.715271,44.468227 
	C25.980753,44.880131 26.246235,45.292030 26.459526,46.441097 
	C24.400038,50.570045 28.590389,50.450558 29.866192,52.635250 
	C28.937199,52.770355 28.008207,52.905460 26.399891,53.005997 
	C25.946289,53.001774 25.492687,52.997551 24.669933,52.429657 
	C23.748974,51.730251 22.828012,51.030849 21.472012,50.001060 
	C20.761192,58.258770 21.888533,65.156204 26.984295,71.709389 
	C27.494556,75.719002 29.918999,72.364410 31.856161,73.253540 
	C35.932484,77.802032 38.761765,83.841446 46.494671,84.981178 
	C47.669491,86.003365 48.844311,87.025558 49.876617,88.747589 
	C47.104446,91.133774 44.332275,93.519958 41.828934,95.674744 
	C45.287270,95.674744 49.163952,95.674744 51.310757,95.674744 
	C52.097656,93.044106 52.552715,91.522820 53.481281,89.711967 
	C54.391621,89.439980 55.301956,89.167992 56.880089,89.049225 
	C59.511536,89.617165 61.826851,92.994171 65.398987,89.761406 
	C66.045540,88.777267 66.692085,87.793137 68.059509,86.923782 
	C70.312752,87.536537 72.565994,88.149292 74.819244,88.762047 
	C75.128166,88.223259 75.437088,87.684471 75.746010,87.145676 
	C72.806160,85.152382 69.866302,83.159088 66.970459,80.420280 
	C66.987267,79.922768 67.004082,79.425247 67.722824,79.059662 
	C69.548065,80.125275 71.373306,81.190887 74.357704,82.933235 
	C73.595039,80.159950 73.298248,79.080742 72.970543,77.378250 
	C72.537598,77.009140 72.104652,76.640030 71.984245,76.043831 
	C71.984245,76.043831 71.687370,76.291222 71.881271,75.579742 
	C71.560509,74.372360 71.239746,73.164978 71.004433,71.092964 
	C71.461594,62.615280 67.407242,56.108467 61.571018,49.613426 
	C60.342445,49.037525 59.113869,48.461624 57.909222,47.934772 
	C57.909222,47.934772 57.861576,47.909534 58.370342,47.783325 
	C58.576641,47.511295 58.782940,47.239265 59.224213,46.466763 
	C59.716465,45.932167 60.208717,45.397575 61.375252,44.502773 
	C61.634708,41.327946 61.894161,38.153122 61.860752,34.409199 
	C61.230083,33.301323 60.599415,32.193447 59.613941,30.538076 
	C58.718102,29.982971 57.822262,29.427868 56.669926,28.263567 
	C53.239578,25.909098 50.000137,26.134558 46.249245,28.978228 
	C44.499367,29.327126 42.749493,29.676023 40.364017,30.608492 
	C39.586418,30.300781 38.808823,29.993071 37.875851,29.063427 
	C36.475750,29.095669 35.075653,29.127909 33.296860,29.055857 
	C33.049301,28.923944 32.893162,28.721512 32.672703,27.802870 
	C32.096802,27.548338 31.520903,27.293806 30.987371,26.994932 
	C30.987371,26.994932 30.972290,27.054256 30.875563,26.700230 
M163.746933,26.623611 
	C163.172455,26.618061 162.597961,26.612511 161.339813,26.633488 
	C160.884125,26.618818 160.428436,26.604149 159.591766,26.262568 
	C159.062897,26.519367 158.534012,26.776167 157.631393,27.395176 
	C157.131302,27.856092 156.631195,28.317009 155.762970,29.339247 
	C154.850281,29.915720 153.937592,30.492191 152.754791,31.718256 
	C152.403275,34.071419 152.051758,36.424576 152.705292,39.047352 
	C153.041595,39.132317 153.377914,39.217285 153.215134,39.876911 
	C151.131317,44.351185 151.980530,46.164894 157.314072,48.417934 
	C157.932495,48.589291 158.550919,48.760643 159.725784,49.405468 
	C161.701111,49.842476 163.731186,50.123421 165.626465,50.788528 
	C166.456909,51.079956 167.012054,52.155785 166.898010,52.791168 
	C165.302475,52.842518 163.706955,52.893867 161.830643,52.704338 
	C161.487671,52.769367 161.144699,52.834396 160.068405,53.331444 
	C159.219666,61.491760 161.370422,68.989769 166.280609,75.338264 
	C169.486603,79.483353 172.570648,84.425674 179.533234,85.003632 
	C180.754730,85.782578 181.976212,86.561523 183.084229,88.031563 
	C180.306747,90.686508 177.529282,93.341454 175.077271,95.685295 
	C178.089859,95.685295 181.902893,95.685295 187.231979,95.685295 
	C182.063477,93.269394 184.364395,91.160858 186.521423,88.725647 
	C187.373413,88.806458 188.225418,88.887276 189.757751,89.114326 
	C192.512131,89.261932 195.331909,94.276558 198.710083,88.659691 
	C199.955185,88.343643 201.200287,88.027588 203.159912,87.760880 
	C204.669601,88.069939 206.179276,88.378990 207.688965,88.688049 
	C207.955750,88.257584 208.222549,87.827126 208.489349,87.396667 
	C206.262527,85.716225 204.035706,84.035782 201.898209,81.542450 
	C201.923401,81.270981 201.948578,80.999512 202.739639,80.937874 
	C203.667206,81.290192 204.594772,81.642502 205.987259,82.171410 
	C205.987259,80.513260 205.987259,79.271736 205.967041,77.327248 
	C205.641190,76.211548 205.315338,75.095840 205.211777,73.501579 
	C205.247192,73.329292 205.282623,73.157005 205.672501,72.628868 
	C205.459900,72.083923 205.247314,71.538979 204.839081,70.661591 
	C204.839081,70.661591 204.871979,70.277260 204.971436,69.558548 
	C204.654297,68.705925 204.337158,67.853302 203.672058,66.354782 
	C201.055038,61.371357 198.438019,56.387936 195.678314,50.824162 
	C195.327789,50.688789 194.977249,50.553421 194.612823,50.386482 
	C194.612823,50.386482 194.579666,50.397129 194.449188,49.720558 
	C193.271957,49.078606 192.094711,48.436653 191.304657,47.247234 
	C193.087997,45.136051 195.103928,43.079037 193.289551,39.530186 
	C193.616501,39.289940 193.943466,39.049694 194.766922,38.335037 
	C194.138580,35.974251 193.510239,33.613464 192.690094,30.707558 
	C191.518494,29.787991 190.346878,28.868423 188.525436,27.719957 
	C185.802032,27.869427 183.078613,28.018896 179.780151,28.306152 
	C179.617783,28.645445 179.455399,28.984735 179.261475,29.326218 
	C179.261475,29.326218 179.291382,29.345993 178.455872,29.178862 
	C177.605942,29.133299 176.756027,29.087738 175.355499,29.084051 
	C174.898651,29.386578 174.441803,29.689104 173.374130,29.732845 
	C170.758636,29.330431 168.143158,28.928015 165.514267,28.489300 
	C165.514267,28.489300 165.486542,28.462282 165.539536,27.822218 
	C164.999985,27.569017 164.460449,27.315817 163.975372,26.999861 
	C163.975372,26.999861 163.958969,27.081316 163.746933,26.623611 
M91.560966,180.321426 
	C91.539330,181.191055 91.517685,182.060684 91.754471,183.533737 
	C92.159943,183.649414 92.565407,183.765091 93.002007,184.654388 
	C93.033653,185.169556 93.065300,185.684708 92.957161,186.929092 
	C93.680923,188.857941 94.404694,190.786789 95.073151,193.559845 
	C95.062370,194.405518 95.051598,195.251205 94.956329,196.991837 
	C94.014191,204.297256 96.892853,210.627029 100.120888,217.584686 
	C101.760231,217.718811 103.399574,217.852936 105.583344,218.382523 
	C109.568047,222.837372 113.552750,227.292206 117.558884,231.771011 
	C122.760765,226.984482 115.465332,225.366898 116.672028,221.456161 
	C118.936539,223.509949 120.944145,225.330734 123.090782,227.638580 
	C123.384644,227.772720 123.678513,227.906876 123.995399,227.996445 
	C123.995399,227.996445 123.956375,228.028824 124.043869,228.873367 
	C124.900269,234.189972 122.449226,237.765900 118.003487,241.043243 
	C120.873756,241.043243 123.744034,241.043243 125.863052,241.043243 
	C125.863052,239.176559 125.909409,237.587204 125.849159,236.001907 
	C125.795959,234.602188 125.450035,233.190826 125.577858,231.816666 
	C125.641373,231.133759 126.477997,230.522766 127.588394,229.987473 
	C128.009323,229.963425 128.430237,229.939377 129.402481,230.226532 
	C129.645172,230.568085 129.887863,230.909622 130.098236,231.654404 
	C130.098236,231.654404 129.874908,231.991669 129.563095,232.132004 
	C129.490097,232.218323 129.343430,232.320389 129.357910,232.388031 
	C129.401672,232.592667 129.507889,232.783951 129.682892,233.742020 
	C135.614380,237.607971 137.169449,237.528915 138.637604,232.418396 
	C138.430908,232.206772 138.224213,231.995163 138.646469,231.066727 
	C139.810623,231.505844 140.974762,231.944962 142.390976,233.157684 
	C143.140762,233.338409 143.890564,233.519119 145.242477,233.751938 
	C146.312347,233.958694 147.382202,234.165436 148.452072,234.372177 
	C148.713882,233.982010 148.975677,233.591843 149.237488,233.201675 
	C147.449768,231.547684 145.662064,229.893692 144.198792,227.653320 
	C144.554306,227.386353 144.909821,227.119385 146.008865,226.843445 
	C145.957596,225.434494 146.272186,223.864487 145.744263,222.665375 
	C145.286453,221.625519 143.874084,221.005905 143.157822,219.644470 
	C143.485947,219.404282 143.814072,219.164093 144.870071,218.563477 
	C145.099365,208.924484 141.925186,200.852921 133.665619,194.508026 
	C133.112213,194.005447 132.558807,193.502853 132.276047,192.474899 
	C133.068924,191.605972 133.861816,190.737061 135.259628,189.659439 
	C135.155258,188.770050 135.050888,187.880646 134.525223,186.590607 
	C134.148834,186.150864 133.772430,185.711136 134.034958,185.009247 
	C134.355728,184.684586 134.676483,184.359909 135.677353,183.801041 
	C135.117737,181.536316 134.558121,179.271606 133.600174,176.487930 
	C133.180191,176.427292 132.760223,176.366653 131.888016,176.660324 
	C131.322037,176.717682 130.756042,176.775040 130.041428,175.832108 
	C130.000900,175.497482 129.960373,175.162842 129.910202,174.121567 
	C127.293312,173.756409 124.676422,173.391235 121.365364,173.072632 
	C120.989388,173.582642 120.613411,174.092636 120.231239,174.857010 
	C120.231239,174.857010 120.018478,174.996521 119.516029,175.188293 
	C118.215019,176.616241 117.608223,169.433350 115.377754,175.326279 
	C113.922211,175.194550 112.466675,175.062820 110.999702,174.996078 
	C110.999702,174.996078 111.065659,174.994492 111.215790,174.465714 
	C111.150772,174.294403 111.085754,174.123108 110.645012,173.466934 
	C109.787254,174.308044 108.929497,175.149170 107.670319,175.424713 
	C103.353745,171.243362 99.813072,171.088898 97.656532,175.484329 
	C96.428291,175.923035 95.200050,176.361740 93.571526,177.283646 
	C93.058083,178.187744 92.544632,179.091843 91.560966,180.321426 
M41.456562,166.956039 
	C65.684380,142.484787 89.912193,118.013542 115.179047,92.492813 
	C146.743973,124.476120 177.604660,155.745850 208.957611,187.514374 
	C211.215622,181.344284 213.076462,175.867950 215.228561,170.508560 
	C216.810318,166.569504 215.808182,163.882492 212.779297,160.903870 
	C192.128616,140.595963 171.625626,120.136894 151.175415,99.626450 
	C139.215790,87.631592 127.441574,75.451851 115.471954,63.241032 
	C113.618011,64.863441 112.452866,65.769791 111.418266,66.806427 
	C103.319778,74.920837 95.276413,83.090401 87.159515,91.186264 
	C63.051971,115.231339 38.910439,139.242355 14.829443,163.313950 
	C14.002146,164.140930 12.963701,165.709015 13.234990,166.532684 
	C15.496122,173.397812 18.041895,180.169159 20.870884,187.989212 
	C28.161398,180.535324 34.558193,173.995178 41.456562,166.956039 
M41.583340,182.087479 
	C36.424179,187.218704 31.265022,192.349945 25.778502,197.806763 
	C29.748617,203.962143 33.630962,209.981445 38.645172,217.755600 
	C64.765205,191.206818 89.994759,165.563126 115.945122,139.186783 
	C141.185425,164.762344 166.357437,190.268723 192.075073,216.327957 
	C196.151443,209.875153 199.927795,203.897247 203.213501,198.696045 
	C173.446838,168.619904 144.200577,139.069565 114.532509,109.093040 
	C90.306534,133.369217 66.220779,157.504868 41.583340,182.087479 
M160.751236,71.743286 
	C159.186768,64.679886 157.622284,57.616482 156.057800,50.553082 
	C155.424149,50.699829 154.790512,50.846577 154.156860,50.993324 
	C153.474640,58.532597 155.072525,65.477997 160.751236,71.743286 
M116.316994,232.070618 
	C113.043304,235.222336 109.769615,238.374054 106.738602,241.292130 
	C106.890167,241.264679 107.857399,240.862610 108.769592,240.962616 
	C113.306755,241.460022 117.461388,237.166733 116.316994,232.070618 
M176.792557,88.396469 
	C175.368698,85.460907 174.352539,87.048759 173.605927,88.778313 
	C172.152130,92.146111 169.770172,93.989677 166.029480,94.066940 
	C165.634705,94.075096 165.255966,94.860069 164.768021,95.396545 
	C171.055191,97.186508 174.040085,93.551819 176.792557,88.396469 
z"/>
<path fill="#53618D" opacity="1.000000" stroke="none" 
	d="
M1.595032,24.737762 
	C1.774711,59.673103 1.722886,94.577217 1.335530,129.740662 
	C1.000000,95.312439 1.000000,60.624878 1.000000,25.468658 
	C1.000000,25.000000 1.363529,24.706532 1.595032,24.737762 
z"/>
<path fill="#16216F" opacity="1.000000" stroke="none" 
	d="
M335.539978,156.001770 
	C335.881805,166.657181 336.003937,176.826263 336.639313,186.963196 
	C337.095978,194.248627 339.300140,196.111481 346.572906,196.866653 
	C349.111481,197.130234 351.652283,197.372452 354.778259,197.682587 
	C351.810913,200.404388 309.849396,200.914261 303.882324,198.321976 
	C306.338196,197.712601 307.709167,197.119705 309.098389,197.073120 
	C314.099243,196.905426 316.809326,194.258972 317.420471,189.485031 
	C318.053925,184.536774 318.825531,179.556412 318.845276,174.587357 
	C318.985535,139.257004 318.949219,103.925949 318.964294,68.595116 
	C318.964630,67.762360 318.913666,66.929382 318.878448,66.096855 
	C318.439819,55.729195 316.286652,53.455814 305.853363,52.317303 
	C304.575989,52.177910 303.304169,51.987373 301.734680,50.673138 
	C302.899048,50.218140 304.065948,49.360767 305.227448,49.368019 
	C325.199402,49.492626 345.186371,49.326492 365.134949,50.113605 
	C373.987183,50.462887 382.593323,53.667469 389.397614,59.617714 
	C401.376190,70.092819 403.512482,83.583237 399.540649,98.358627 
	C396.233276,110.662331 388.571716,120.242874 379.633881,128.941711 
	C378.932709,129.624115 378.304047,130.381058 376.883240,131.930450 
	C392.001617,149.908249 406.778198,168.104767 422.363129,185.580368 
	C426.346924,190.047440 432.616028,192.884506 438.333893,195.280167 
	C443.844635,197.589066 447.160919,195.507370 447.997986,189.640625 
	C449.099335,181.921234 449.729431,174.074371 449.786133,166.276688 
	C450.021362,133.946320 449.965454,101.613846 450.011230,69.282135 
	C450.013367,67.782448 450.001648,66.281082 449.934814,64.783241 
	C449.540955,55.955250 447.218933,53.445103 438.396393,52.247169 
	C437.442627,52.117668 436.496887,51.929104 435.271667,50.676491 
	C436.587006,50.213375 437.898010,49.361958 439.218353,49.347229 
	C452.374054,49.200512 465.531311,49.170330 478.688049,49.180458 
	C479.884216,49.181377 481.080017,49.691635 482.275970,49.965370 
	C482.303986,50.435940 482.331970,50.906513 482.359985,51.377083 
	C480.627045,51.757885 478.910461,52.259727 477.158051,52.496475 
	C472.186127,53.168182 469.312531,55.858582 468.845062,60.907021 
	C468.523010,64.384941 468.083435,67.872093 468.076172,71.355919 
	C468.009827,103.187782 467.971313,135.019989 468.064484,166.851669 
	C468.083954,173.506805 468.643585,180.162262 469.018951,186.813919 
	C469.394043,193.460251 471.765503,195.951553 478.440063,196.772705 
	C481.275024,197.121475 484.123474,197.360336 486.965790,197.649155 
	C486.983185,198.205475 487.000549,198.761795 487.017914,199.318130 
	C485.432770,199.586456 483.849060,200.078674 482.262268,200.088760 
	C464.768677,200.200027 447.274689,200.268463 429.780731,200.280914 
	C419.266998,200.288391 409.874481,197.028091 403.201324,188.733139 
	C391.831573,174.600159 380.501282,160.387375 370.093964,145.549133 
	C365.134979,138.478897 359.876099,135.031235 351.284760,136.057007 
	C346.377960,136.642883 341.343964,136.163040 335.539978,136.163040 
	C335.539978,142.680832 335.539978,149.091278 335.539978,156.001770 
M381.960419,79.743202 
	C375.082733,57.791740 357.785217,53.639751 338.381012,56.487553 
	C335.301788,56.939465 334.799774,58.627895 334.808777,61.304764 
	C334.877075,81.615501 334.920288,101.927124 334.771118,122.237000 
	C334.746765,125.553528 335.957855,127.346375 339.021729,127.762367 
	C345.258026,128.609100 351.510376,129.738678 357.776031,129.882065 
	C369.644867,130.153717 377.061859,124.715508 381.153900,113.428383 
	C385.081787,102.594017 384.892822,91.597137 381.960419,79.743202 
z"/>
<path fill="#18236F" opacity="1.000000" stroke="none" 
	d="
M630.670959,166.615784 
	C631.456116,165.505615 632.155884,164.796249 632.855652,164.086884 
	C633.243347,164.904968 634.075439,165.798462 633.951294,166.529663 
	C632.367798,175.859100 630.780762,185.193619 628.818115,194.446976 
	C628.522278,195.841904 626.482727,197.534912 624.961975,197.904007 
	C590.830505,206.187836 557.372803,206.808716 527.439270,185.143051 
	C502.804871,167.312866 492.834839,134.566238 500.933167,103.185417 
	C508.860840,72.466057 531.209839,52.533588 562.744202,47.838223 
	C581.799927,45.000874 600.598206,46.853855 619.360474,50.335575 
	C623.766235,51.153156 628.244446,51.580643 633.332947,52.275482 
	C632.710876,64.873871 632.092773,77.392044 631.474670,89.910210 
	C630.817993,89.953133 630.161255,89.996063 629.504578,90.038986 
	C629.142090,88.258064 628.553955,86.489708 628.453979,84.694183 
	C627.833130,73.538361 622.750183,65.588570 612.379272,60.929787 
	C590.436401,51.072685 568.345459,51.761921 546.449036,60.432274 
	C536.014648,64.563972 528.304199,72.771095 524.025208,82.954254 
	C512.582153,110.186699 512.439819,137.304581 529.485168,162.438385 
	C543.875366,183.657120 564.821350,193.586426 590.441467,193.536255 
	C593.768677,193.529739 597.100098,193.239761 600.421265,192.976227 
	C617.828003,191.594910 626.577881,184.049011 630.670959,166.615784 
z"/>
<path fill="#16216F" opacity="1.000000" stroke="none" 
	d="
M686.901428,160.999786 
	C686.945068,167.496719 686.768677,173.505447 687.087219,179.487808 
	C687.499451,187.230087 690.443420,191.068924 697.681091,191.638840 
	C705.938354,192.289032 714.304260,192.067978 722.594421,191.654938 
	C731.542297,191.209106 736.289246,185.786255 737.765198,177.180252 
	C738.014343,175.727158 738.531311,174.319977 738.924561,172.891571 
	C739.455627,172.937653 739.986694,172.983734 740.517761,173.029816 
	C740.658081,174.522171 741.058716,176.044220 740.892395,177.501572 
	C740.269836,182.956482 739.402832,188.383041 738.741272,193.834061 
	C738.171936,198.525330 735.446167,200.432968 730.929504,200.355957 
	C716.108215,200.103210 701.287170,199.800537 686.464661,199.675980 
	C677.813171,199.603256 669.158936,199.891861 660.506287,199.875443 
	C658.890198,199.872391 657.275452,199.192825 655.796143,198.294296 
	C668.245728,194.461365 668.810425,194.476517 669.170715,181.051361 
	C669.782532,158.245270 669.646973,135.418137 669.741028,112.599503 
	C669.802063,97.771988 669.708191,82.943878 669.693420,68.116020 
	C669.680664,55.339836 667.826050,53.328308 654.898071,52.074856 
	C654.267456,52.013710 653.653564,51.780262 653.031860,51.627048 
	C652.936035,51.160587 652.840271,50.694126 652.744446,50.227665 
	C654.521729,49.868851 656.301636,49.186558 658.075989,49.200558 
	C679.063416,49.366158 700.049561,49.728954 721.036987,49.807312 
	C725.808716,49.825127 730.583679,48.952564 736.017029,48.425858 
	C735.112061,56.795391 734.175354,65.458244 733.238647,74.121101 
	C732.686279,74.167862 732.133972,74.214615 731.581665,74.261375 
	C731.227783,72.857285 730.748779,71.471466 730.540588,70.046097 
	C729.290955,61.488842 726.888550,58.774933 718.082764,58.060104 
	C707.986267,57.240498 697.835938,57.084507 687.293579,56.621998 
	C687.293579,76.589577 687.293579,95.962044 687.293579,116.402390 
	C699.921875,115.840668 712.503174,115.493416 725.038269,114.539978 
	C727.475281,114.354622 729.732788,111.808937 732.864990,109.858940 
	C731.898254,120.007019 730.981140,129.634033 730.064026,139.261032 
	C729.465698,139.254135 728.867371,139.247253 728.269043,139.240356 
	C728.078125,137.740280 727.905212,136.237671 727.693298,134.740555 
	C726.708069,127.779518 724.088257,124.596886 717.228638,124.262207 
	C707.444092,123.784813 697.618835,124.140747 686.901428,124.140747 
	C686.901428,135.701355 686.901428,148.100601 686.901428,160.999786 
z"/>
<path fill="#FBFCFC" opacity="1.000000" stroke="none" 
	d="
M41.205772,167.205536 
	C34.558193,173.995178 28.161398,180.535324 20.870884,187.989212 
	C18.041895,180.169159 15.496122,173.397812 13.234990,166.532684 
	C12.963701,165.709015 14.002146,164.140930 14.829443,163.313950 
	C38.910439,139.242355 63.051971,115.231339 87.159515,91.186264 
	C95.276413,83.090401 103.319778,74.920837 111.418266,66.806427 
	C112.452866,65.769791 113.618011,64.863441 115.471954,63.241032 
	C127.441574,75.451851 139.215790,87.631592 151.175415,99.626450 
	C171.625626,120.136894 192.128616,140.595963 212.779297,160.903870 
	C215.808182,163.882492 216.810318,166.569504 215.228561,170.508560 
	C213.076462,175.867950 211.215622,181.344284 208.957611,187.514374 
	C177.604660,155.745850 146.743973,124.476120 115.179047,92.492813 
	C89.912193,118.013542 65.684380,142.484787 41.205772,167.205536 
z"/>
<path fill="#FAFAFB" opacity="1.000000" stroke="none" 
	d="
M41.859184,181.864014 
	C66.220779,157.504868 90.306534,133.369217 114.532509,109.093040 
	C144.200577,139.069565 173.446838,168.619904 203.213501,198.696045 
	C199.927795,203.897247 196.151443,209.875153 192.075073,216.327957 
	C166.357437,190.268723 141.185425,164.762344 115.945122,139.186783 
	C89.994759,165.563126 64.765205,191.206818 38.645172,217.755600 
	C33.630962,209.981445 29.748617,203.962143 25.778502,197.806763 
	C31.265022,192.349945 36.424179,187.218704 41.859184,181.864014 
z"/>
<path fill="#F3F5F8" opacity="1.000000" stroke="none" 
	d="
M128.851166,229.915344 
	C128.430237,229.939377 128.009323,229.963425 127.151855,229.639603 
	C125.795677,228.870758 124.876022,228.449799 123.956375,228.028839 
	C123.956375,228.028824 123.995399,227.996445 123.987587,227.778519 
	C123.637100,227.424225 123.294426,227.287872 122.951752,227.151520 
	C120.944145,225.330734 118.936539,223.509949 116.672028,221.456161 
	C115.465332,225.366898 122.760765,226.984482 117.558884,231.771011 
	C113.552750,227.292206 109.568047,222.837372 105.223259,217.830719 
	C101.539429,211.397324 100.326591,205.132477 100.963921,197.918640 
	C103.936539,197.918640 106.431244,197.918640 109.381935,197.918640 
	C107.497597,193.631607 98.505630,199.107697 100.470665,190.880829 
	C105.391518,190.256836 109.049446,191.087692 110.649635,196.160690 
	C111.121826,197.657639 112.635796,198.825989 113.672348,200.144928 
	C114.865776,198.767700 116.059196,197.390457 117.538239,196.015259 
	C118.204544,196.008911 118.585220,196.000519 118.803352,196.428070 
	C119.084267,207.250381 121.047928,217.074326 128.273712,225.217789 
	C129.135864,226.189438 128.690475,228.321274 128.851166,229.915344 
z"/>
<path fill="#223271" opacity="1.000000" stroke="none" 
	d="
M190.917480,47.794701 
	C192.094711,48.436653 193.271957,49.078606 194.149414,49.923653 
	C189.502716,51.260223 185.155792,52.393703 180.435730,53.624481 
	C180.507385,55.091599 180.497971,56.721539 180.679504,58.329929 
	C182.258423,72.319550 190.245941,81.579910 202.445389,87.711533 
	C201.200287,88.027588 199.955185,88.343643 198.265045,88.492432 
	C195.637375,86.670433 193.454712,85.015701 190.625290,82.870621 
	C190.003540,85.319824 189.540482,87.143959 189.077423,88.968086 
	C188.225418,88.887276 187.373413,88.806458 186.295990,88.532852 
	C185.869492,85.832481 184.830200,85.734009 183.197708,87.340469 
	C181.976212,86.561523 180.754730,85.782578 179.173126,84.580658 
	C177.108078,80.810974 175.403152,77.464272 173.698212,74.117569 
	C173.875656,73.941689 174.053101,73.765808 174.230530,73.589928 
	C178.489792,77.453316 182.749054,81.316696 187.008316,85.180077 
	C187.417770,84.840736 187.827225,84.501404 188.236679,84.162064 
	C188.006927,82.572693 188.362564,80.410057 187.455582,79.483894 
	C179.617828,71.480408 178.412552,61.381599 178.359650,50.890221 
	C180.241638,50.710052 181.723343,50.710781 183.182663,50.530289 
	C186.783691,50.084892 187.510971,48.202484 185.993088,45.285595 
	C183.498688,45.285595 181.287720,45.285595 178.887024,45.285595 
	C177.997375,47.213810 177.115753,49.124641 176.042114,51.339909 
	C174.843323,52.767181 173.836563,53.890015 172.829803,55.012848 
	C171.797531,53.703293 170.765274,52.393734 169.686188,50.740265 
	C168.715836,48.672611 167.792297,46.948864 166.916473,45.314186 
	C164.520447,45.314186 162.304611,45.314186 159.674316,45.314186 
	C159.517776,46.435627 159.343552,47.683811 159.169342,48.931999 
	C158.550919,48.760643 157.932495,48.589291 157.106018,47.706161 
	C156.964584,45.275326 157.469910,43.406452 156.951111,41.887321 
	C156.574875,40.785645 154.842102,40.147240 153.714218,39.302254 
	C153.377914,39.217285 153.041595,39.132317 152.410400,38.625298 
	C154.327393,36.749187 156.539291,35.295132 158.751190,33.841076 
	C158.633392,33.286743 158.515610,32.732407 158.397827,32.178074 
	C156.606857,31.808271 154.815872,31.438469 153.024902,31.068665 
	C153.937592,30.492191 154.850281,29.915720 156.301453,29.189959 
	C160.154526,30.034992 163.469116,31.029316 167.734665,32.308914 
	C166.631180,30.417269 166.079422,29.471432 165.527679,28.525597 
	C168.143158,28.928015 170.758636,29.330431 173.498154,30.212036 
	C172.418533,30.927589 171.214890,31.163948 169.872711,31.427511 
	C170.432327,33.860584 170.903183,35.907684 171.568329,38.799587 
	C172.877228,37.815437 174.402924,37.266312 174.681824,36.341263 
	C175.388290,33.998199 175.535141,31.486399 175.906097,29.042175 
	C176.756027,29.087738 177.605942,29.133299 178.804108,29.617149 
	C179.121033,30.382236 179.089722,30.709038 179.058411,31.035839 
	C182.791061,31.187878 186.700974,31.920801 189.175278,27.948856 
	C190.346878,28.868423 191.518494,29.787991 192.394363,30.898716 
	C190.541153,31.516802 188.983673,31.943731 187.426193,32.370663 
	C187.331375,32.858532 187.236557,33.346405 187.141739,33.834274 
	C189.517975,35.492668 191.894196,37.151058 194.270416,38.809448 
	C193.943466,39.049694 193.616501,39.289940 192.786057,39.655228 
	C190.672546,38.744576 189.289429,38.194202 188.855225,40.918053 
	C188.431168,43.578331 186.787354,46.528633 190.917480,47.794701 
M159.618179,41.386814 
	C162.058472,44.138412 165.005051,44.446026 167.291992,41.765488 
	C168.366425,40.506157 168.766068,37.234291 167.888504,36.109501 
	C166.787628,34.698498 163.906342,33.708691 162.070908,34.046154 
	C158.569214,34.689968 158.177780,37.620552 159.618179,41.386814 
M186.924774,40.146931 
	C187.858109,35.896671 185.781281,33.248543 181.819504,33.749641 
	C175.335739,34.569729 180.735626,39.743416 178.861511,42.434135 
	C179.162369,42.898582 179.463226,43.363033 179.764069,43.827480 
	C182.036240,42.859142 184.308411,41.890804 186.924774,40.146931 
M171.453827,49.953247 
	C172.004730,50.625751 172.555634,51.298260 173.253479,52.150143 
	C174.370605,49.625748 175.651459,47.595768 176.097351,45.396500 
	C176.360901,44.096703 175.627335,42.254635 174.719666,41.184380 
	C174.170761,40.537159 171.868317,40.370209 171.347015,40.923431 
	C170.367554,41.962856 169.695526,43.672646 169.667755,45.118507 
	C169.641266,46.497452 170.598389,47.895287 171.453827,49.953247 
z"/>
<path fill="#213270" opacity="1.000000" stroke="none" 
	d="
M67.338638,86.808998 
	C66.692085,87.793137 66.045540,88.777267 65.180847,89.492706 
	C62.828552,87.182007 60.694393,85.140007 57.932819,82.497673 
	C57.124451,85.503853 56.668373,87.199928 56.212296,88.895996 
	C55.301956,89.167992 54.391621,89.439980 53.268890,89.484528 
	C52.924706,88.323105 52.792904,87.389114 52.661102,86.455132 
	C51.780449,86.986008 50.899788,87.516884 50.019127,88.047752 
	C48.844311,87.025558 47.669491,86.003365 46.146301,84.563721 
	C44.167221,80.679230 42.536510,77.212204 40.905804,73.745171 
	C41.086674,73.631279 41.267544,73.517387 41.448414,73.403488 
	C45.641804,77.333504 49.835197,81.263512 54.028587,85.193527 
	C54.756897,84.757553 55.485207,84.321587 56.213516,83.885620 
	C50.795158,73.707886 43.983273,63.994358 45.178165,50.764187 
	C42.616661,52.997623 41.337055,54.113342 39.759689,55.488686 
	C38.569569,53.762283 37.651451,52.430462 36.657097,50.740242 
	C35.837616,48.623253 35.094383,46.864655 34.342228,45.084949 
	C31.546549,45.305939 29.029133,45.504932 26.511715,45.703926 
	C26.246235,45.292030 25.980753,44.880131 25.360394,43.873680 
	C23.942362,41.545887 24.757137,37.356991 20.483940,39.821304 
	C20.203775,39.636311 19.923609,39.451321 19.456059,38.714127 
	C21.595699,36.685020 23.922728,35.208115 26.249754,33.731209 
	C26.124737,33.206871 25.999720,32.682529 25.874702,32.158192 
	C23.954180,31.854048 22.033655,31.549902 20.113132,31.245758 
	C20.967510,30.546724 21.821888,29.847691 23.356180,29.095081 
	C27.197474,29.880819 30.358852,30.720135 33.742508,31.695011 
	C34.210312,31.778759 34.455837,31.726950 34.701366,31.675138 
	C34.569061,31.349234 34.436752,31.023329 34.220535,30.431896 
	C33.982937,29.830961 33.829243,29.495554 33.675552,29.160149 
	C35.075653,29.127909 36.475750,29.095669 37.633133,29.602482 
	C38.319283,37.868927 38.319283,37.868927 41.729805,37.656372 
	C42.105213,35.910320 42.726116,34.170807 42.761978,32.419308 
	C42.778069,31.633535 41.623154,30.823788 40.999615,30.024921 
	C42.749493,29.676023 44.499367,29.327126 46.479420,29.261841 
	C46.320480,30.212851 45.931366,30.880243 44.973946,32.522385 
	C49.613064,31.105856 53.269741,29.989309 56.926422,28.872761 
	C57.822262,29.427868 58.718102,29.982971 59.392235,30.776972 
	C57.589108,31.517973 56.007690,32.020077 52.847355,33.023495 
	C56.554539,35.418995 58.937897,36.959068 61.886810,38.864590 
	C62.023731,36.870224 62.088673,35.924259 62.153618,34.978294 
	C61.894161,38.153122 61.634708,41.327946 61.135193,44.297565 
	C61.928493,40.806145 59.900383,39.767273 57.126896,38.936199 
	C55.608444,42.202095 53.653976,45.259323 57.885296,47.885723 
	C59.113869,48.461624 60.342445,49.037525 61.341042,49.813801 
	C56.821560,51.181461 52.532059,52.348743 48.111485,53.551697 
	C47.560329,60.112831 48.188797,66.738922 52.422321,71.920189 
	C56.844555,77.332420 62.322308,81.882195 67.338638,86.808998 
M52.764145,42.409134 
	C53.227795,41.194901 54.323231,39.782322 54.017822,38.809536 
	C53.457661,37.025333 52.372433,34.573147 50.950245,34.111347 
	C49.314339,33.580147 46.060932,34.327255 45.353683,35.569107 
	C44.453537,37.149673 44.617222,40.516869 45.775299,41.757484 
	C46.938595,43.003693 49.886543,42.583977 52.764145,42.409134 
M28.289415,34.182388 
	C24.935345,37.815899 25.343454,42.313145 29.282684,43.033665 
	C30.982473,43.344574 33.573853,42.850964 34.590591,41.694515 
	C35.630882,40.511269 36.109169,37.192329 35.282166,36.371819 
	C33.835903,34.936905 31.202511,34.698513 28.289415,34.182388 
M43.442993,42.319813 
	C41.718929,40.123947 39.478344,39.254520 37.596180,41.620979 
	C34.087929,46.031940 39.392330,48.274685 39.638351,51.832069 
	C40.094200,51.806515 40.550045,51.780956 41.005890,51.755398 
	C41.938580,48.830639 42.871265,45.905884 43.442993,42.319813 
M48.009823,45.357567 
	C46.415188,46.984982 44.820549,48.612392 43.225914,50.239803 
	C43.674637,50.702412 44.123356,51.165020 44.572079,51.627628 
	C46.840717,48.640862 54.508793,53.869823 53.506554,45.055607 
	C51.643589,45.259308 50.196026,45.417587 48.009823,45.357567 
z"/>
<path fill="#203170" opacity="1.000000" stroke="none" 
	d="
M117.252625,196.013229 
	C116.059196,197.390457 114.865776,198.767700 113.672348,200.144928 
	C112.635796,198.825989 111.121826,197.657639 110.649635,196.160690 
	C109.049446,191.087692 105.391518,190.256836 100.470665,190.880829 
	C98.505630,199.107697 107.497597,193.631607 109.381935,197.918640 
	C106.431244,197.918640 103.936539,197.918640 100.963921,197.918640 
	C100.326591,205.132477 101.539429,211.397324 104.951050,217.632996 
	C103.399574,217.852936 101.760231,217.718811 100.462364,217.136810 
	C99.916573,210.390732 99.120033,204.076569 98.019112,197.815933 
	C97.891594,197.090759 96.074554,196.662689 95.040817,196.096878 
	C95.051598,195.251205 95.062370,194.405518 95.433319,193.278915 
	C96.515099,192.976990 97.866516,192.979019 97.868240,192.931671 
	C97.969139,190.173965 97.958328,187.412170 97.958328,183.774063 
	C95.414917,185.043213 94.255928,185.621536 93.096939,186.199860 
	C93.065300,185.684708 93.033653,185.169556 93.162331,183.957993 
	C95.445312,181.935486 97.567978,180.609360 99.690636,179.283249 
	C99.491570,178.719757 99.292503,178.156281 99.093430,177.592804 
	C97.386230,177.328690 95.679024,177.064575 93.971817,176.800446 
	C95.200050,176.361740 96.428291,175.923035 98.206970,175.291946 
	C101.696350,177.130661 104.739510,178.071884 108.071739,175.990280 
	C108.929497,175.149170 109.787254,174.308044 110.490654,173.771271 
	C110.342003,174.444199 110.347717,174.812775 110.353424,175.181366 
	C110.590836,175.119064 110.828247,175.056778 111.065659,174.994492 
	C111.065659,174.994492 110.999702,174.996078 110.783539,175.337738 
	C110.954399,177.444778 111.597069,179.199234 111.673286,180.977951 
	C111.815887,184.305420 113.446907,184.240555 115.981339,183.245819 
	C115.981339,180.400558 115.981339,177.651932 115.981339,174.903320 
	C117.608223,169.433350 118.215019,176.616241 119.737518,175.521576 
	C123.238098,177.567383 123.994324,177.489441 129.919861,174.828217 
	C129.960373,175.162842 130.000900,175.497482 129.870743,176.495972 
	C126.627167,179.862625 129.682358,180.860336 131.198807,182.071121 
	C132.291260,182.943390 133.719040,183.395645 134.997253,184.035248 
	C134.676483,184.359909 134.355728,184.684586 133.404572,185.080231 
	C128.220993,183.647125 129.559631,187.643829 129.336914,189.394379 
	C129.255920,190.031036 127.648361,194.500671 132.005402,193.000259 
	C132.558807,193.502853 133.112213,194.005447 133.476868,194.829346 
	C129.472549,196.500702 125.656998,197.850754 121.361351,199.370682 
	C121.361351,200.568100 121.124298,202.380005 121.400429,204.109985 
	C123.000961,214.137466 127.450317,222.528931 135.710587,228.738602 
	C136.731247,229.505875 137.279724,230.901260 137.687881,232.079773 
	C135.510803,231.115921 133.692871,230.077850 131.827515,229.012726 
	C131.254349,229.768768 130.692459,230.509964 130.130554,231.251175 
	C129.887863,230.909622 129.645172,230.568085 129.126831,230.070938 
	C128.690475,228.321274 129.135864,226.189438 128.273712,225.217789 
	C121.047928,217.074326 119.084267,207.250381 119.242630,196.391479 
	C127.736809,195.798035 127.736809,195.798035 126.661652,190.634247 
	C122.616585,190.835815 118.090469,190.211853 117.252625,196.013229 
M99.804581,185.742905 
	C101.627495,188.492493 104.088676,190.445557 107.059143,188.002609 
	C108.435585,186.870605 109.497398,183.801407 108.923050,182.283478 
	C108.333130,180.724380 104.693855,178.650635 103.936073,179.149933 
	C101.999794,180.425781 100.924446,183.008240 99.804581,185.742905 
M118.743874,186.530396 
	C121.231087,189.451309 123.881760,190.108109 126.744942,187.054947 
	C129.121017,184.521194 128.382202,181.965210 126.060104,180.173798 
	C124.848915,179.239426 121.764801,178.660233 121.235733,179.310715 
	C119.768112,181.115128 119.196777,183.648514 118.743874,186.530396 
M116.958710,191.080917 
	C116.476990,189.503769 116.371521,187.579391 115.363907,186.487579 
	C114.812820,185.890472 111.979431,186.234344 111.517975,186.982300 
	C110.750656,188.226013 110.685112,190.219177 111.018242,191.745148 
	C111.433525,193.647491 112.552673,195.396164 113.824730,198.228271 
	C115.132523,195.361191 115.930153,193.612534 116.958710,191.080917 
z"/>
<path fill="#F6F8F9" opacity="1.000000" stroke="none" 
	d="
M177.949188,50.988644 
	C178.412552,61.381599 179.617828,71.480408 187.455582,79.483894 
	C188.362564,80.410057 188.006927,82.572693 188.236679,84.162064 
	C187.827225,84.501404 187.417770,84.840736 187.008316,85.180077 
	C182.749054,81.316696 178.489792,77.453316 174.230530,73.589928 
	C174.053101,73.765808 173.875656,73.941689 173.698212,74.117569 
	C175.403152,77.464272 177.108078,80.810974 178.802521,84.528778 
	C172.570648,84.425674 169.486603,79.483353 166.280609,75.338264 
	C161.370422,68.989769 159.219666,61.491760 160.760864,53.177792 
	C161.672684,52.997833 161.892044,52.971527 162.111420,52.945221 
	C163.706955,52.893867 165.302475,52.842518 167.576904,52.790901 
	C168.748199,52.221813 169.240601,51.652992 169.733002,51.084167 
	C170.765274,52.393734 171.797531,53.703293 172.829803,55.012848 
	C173.836563,53.890015 174.843323,52.767181 176.328186,51.343903 
	C177.187241,51.025185 177.568222,51.006912 177.949188,50.988644 
z"/>
<path fill="#F5F6F8" opacity="1.000000" stroke="none" 
	d="
M36.733337,51.098637 
	C37.651451,52.430462 38.569569,53.762283 39.759689,55.488686 
	C41.337055,54.113342 42.616661,52.997623 45.178165,50.764187 
	C43.983273,63.994358 50.795158,73.707886 56.213516,83.885620 
	C55.485207,84.321587 54.756897,84.757553 54.028587,85.193527 
	C49.835197,81.263512 45.641804,77.333504 41.448414,73.403488 
	C41.267544,73.517387 41.086674,73.631279 40.905804,73.745171 
	C42.536510,77.212204 44.167221,80.679230 45.782303,84.517433 
	C38.761765,83.841446 35.932484,77.802032 31.513815,72.681656 
	C28.550543,66.023079 26.083176,59.903446 27.079214,53.040562 
	C28.008207,52.905460 28.937199,52.770355 30.419889,52.361305 
	C32.893505,51.757782 34.813419,51.428211 36.733337,51.098637 
z"/>
<path fill="#F0F3F6" opacity="1.000000" stroke="none" 
	d="
M138.047012,232.005569 
	C137.279724,230.901260 136.731247,229.505875 135.710587,228.738602 
	C127.450317,222.528931 123.000961,214.137466 121.400429,204.109985 
	C121.124298,202.380005 121.361351,200.568100 121.361351,199.370682 
	C125.656998,197.850754 129.472549,196.500702 133.645752,195.059219 
	C141.925186,200.852921 145.099365,208.924484 144.372726,218.430725 
	C140.405579,214.031433 136.935791,209.764908 132.912918,204.818329 
	C134.170532,212.001740 137.258453,216.927414 142.883606,220.200546 
	C143.874084,221.005905 145.286453,221.625519 145.744263,222.665375 
	C146.272186,223.864487 145.957596,225.434494 145.402512,226.589645 
	C136.719131,223.086685 132.369034,216.119019 127.856262,209.270660 
	C129.915985,218.407272 135.306396,224.671555 143.874344,228.239700 
	C145.662064,229.893692 147.449768,231.547684 149.237488,233.201675 
	C148.975677,233.591843 148.713882,233.982010 148.452072,234.372177 
	C147.382202,234.165436 146.312347,233.958694 144.694305,233.462524 
	C143.477051,232.910080 142.807983,232.647079 142.138916,232.384079 
	C140.974762,231.944962 139.810623,231.505844 138.321777,231.467773 
	C137.997101,231.868820 138.009537,231.955780 138.003082,231.980347 
	C137.996613,232.004913 138.047012,232.005569 138.047012,232.005569 
z"/>
<path fill="#F0F3F6" opacity="1.000000" stroke="none" 
	d="
M202.802643,87.736206 
	C190.245941,81.579910 182.258423,72.319550 180.679504,58.329929 
	C180.497971,56.721539 180.507385,55.091599 180.435730,53.624481 
	C185.155792,52.393703 189.502716,51.260223 194.214661,50.261936 
	C194.579666,50.397129 194.612823,50.386482 194.743973,50.644028 
	C195.190414,51.069221 195.505707,51.236870 195.820999,51.404518 
	C198.438019,56.387936 201.055038,61.371357 203.803680,67.030334 
	C204.247528,68.563011 204.559753,69.420135 204.871979,70.277260 
	C204.871979,70.277260 204.839081,70.661591 204.897583,71.168694 
	C205.076721,72.112099 205.197388,72.548409 205.318054,72.984718 
	C205.282623,73.157005 205.247192,73.329292 204.768845,73.668564 
	C200.413849,69.538040 196.501785,65.240524 192.589706,60.943008 
	C194.224335,69.094223 199.877884,73.753502 205.987259,78.030212 
	C205.987259,79.271736 205.987259,80.513260 205.987259,82.171410 
	C204.594772,81.642502 203.667206,81.290192 202.316345,80.644119 
	C201.893066,80.350357 201.565033,80.146553 201.362671,79.901566 
	C196.383728,74.619453 191.607147,69.582336 186.621017,64.324257 
	C188.524231,72.271614 193.549026,77.512474 200.344147,81.799179 
	C200.992950,82.123787 201.400925,82.239555 201.808899,82.355331 
	C204.035706,84.035782 206.262527,85.716225 208.489349,87.396667 
	C208.222549,87.827126 207.955750,88.257584 207.688965,88.688049 
	C206.179276,88.378990 204.669601,88.069939 202.802643,87.736206 
z"/>
<path fill="#F0F3F6" opacity="1.000000" stroke="none" 
	d="
M67.699074,86.866394 
	C62.322308,81.882195 56.844555,77.332420 52.422321,71.920189 
	C48.188797,66.738922 47.560329,60.112831 48.111485,53.551697 
	C52.532059,52.348743 56.821560,51.181461 61.502651,50.126526 
	C67.407242,56.108467 71.461594,62.615280 70.599304,71.576797 
	C66.697922,68.122856 63.201668,64.185089 58.798931,59.226368 
	C61.260582,67.537331 64.855789,73.175095 71.687370,76.291222 
	C71.687370,76.291222 71.984245,76.043831 71.901924,76.432281 
	C72.213554,77.214325 72.607513,77.607933 73.001465,78.001534 
	C73.298248,79.080742 73.595039,80.159950 74.357704,82.933235 
	C71.373306,81.190887 69.548065,80.125275 67.189575,78.716118 
	C62.489433,73.690002 58.322529,69.007439 53.535641,63.628159 
	C55.554279,72.028831 60.552345,77.107086 66.926453,81.165794 
	C69.866302,83.159088 72.806160,85.152382 75.746010,87.145676 
	C75.437088,87.684471 75.128166,88.223259 74.819244,88.762047 
	C72.565994,88.149292 70.312752,87.536537 67.699074,86.866394 
z"/>
<path fill="#DCE2EB" opacity="1.000000" stroke="none" 
	d="
M160.393814,71.644997 
	C155.072525,65.477997 153.474640,58.532597 154.156860,50.993324 
	C154.790512,50.846577 155.424149,50.699829 156.057800,50.553082 
	C157.622284,57.616482 159.186768,64.679886 160.393814,71.644997 
z"/>
<path fill="#DCE2EB" opacity="1.000000" stroke="none" 
	d="
M26.978573,70.982170 
	C21.888533,65.156204 20.761192,58.258770 21.472012,50.001060 
	C22.828012,51.030849 23.748974,51.730251 24.807215,53.155113 
	C25.622522,59.581104 26.300549,65.281639 26.978573,70.982170 
z"/>
<path fill="#D4DAE6" opacity="1.000000" stroke="none" 
	d="
M36.657097,50.740242 
	C34.813419,51.428211 32.893505,51.757782 30.619732,52.063972 
	C28.590389,50.450558 24.400038,50.570045 26.485622,46.072510 
	C29.029133,45.504932 31.546549,45.305939 34.342228,45.084949 
	C35.094383,46.864655 35.837616,48.623253 36.657097,50.740242 
z"/>
<path fill="#DFE4ED" opacity="1.000000" stroke="none" 
	d="
M94.998573,196.544357 
	C96.074554,196.662689 97.891594,197.090759 98.019112,197.815933 
	C99.120033,204.076569 99.916573,210.390732 100.420502,216.788956 
	C96.892853,210.627029 94.014191,204.297256 94.998573,196.544357 
z"/>
<path fill="#273672" opacity="1.000000" stroke="none" 
	d="
M144.036560,227.946503 
	C135.306396,224.671555 129.915985,218.407272 127.856262,209.270660 
	C132.369034,216.119019 136.719131,223.086685 145.030762,226.594131 
	C144.909821,227.119385 144.554306,227.386353 144.036560,227.946503 
z"/>
<path fill="#DAE0EA" opacity="1.000000" stroke="none" 
	d="
M124.000122,228.451111 
	C124.876022,228.449799 125.795677,228.870758 126.840103,229.585480 
	C126.477997,230.522766 125.641373,231.133759 125.577858,231.816666 
	C125.450035,233.190826 125.795959,234.602188 125.849159,236.001907 
	C125.909409,237.587204 125.863052,239.176559 125.863052,241.043243 
	C123.744034,241.043243 120.873756,241.043243 118.003487,241.043243 
	C122.449226,237.765900 124.900269,234.189972 124.000122,228.451111 
z"/>
<path fill="#273672" opacity="1.000000" stroke="none" 
	d="
M71.784317,75.935486 
	C64.855789,73.175095 61.260582,67.537331 58.798931,59.226368 
	C63.201668,64.185089 66.697922,68.122856 70.556580,72.009109 
	C71.239746,73.164978 71.560509,74.372360 71.784317,75.935486 
z"/>
<path fill="#DCE2EB" opacity="1.000000" stroke="none" 
	d="
M169.686188,50.740261 
	C169.240601,51.652992 168.748199,52.221813 167.974014,52.833031 
	C167.012054,52.155785 166.456909,51.079956 165.626465,50.788528 
	C163.731186,50.123421 161.701111,49.842476 159.447556,49.168732 
	C159.343552,47.683811 159.517776,46.435627 159.674316,45.314186 
	C162.304611,45.314186 164.520447,45.314186 166.916473,45.314186 
	C167.792297,46.948864 168.715836,48.672611 169.686188,50.740261 
z"/>
<path fill="#E3EAF1" opacity="1.000000" stroke="none" 
	d="
M49.947872,88.397675 
	C50.899788,87.516884 51.780449,86.986008 52.661102,86.455132 
	C52.792904,87.389114 52.924706,88.323105 53.032143,89.629303 
	C52.552715,91.522820 52.097656,93.044106 51.310757,95.674744 
	C49.163952,95.674744 45.287270,95.674744 41.828934,95.674744 
	C44.332275,93.519958 47.104446,91.133774 49.947872,88.397675 
z"/>
<path fill="#202F6C" opacity="1.000000" stroke="none" 
	d="
M26.981434,71.345779 
	C26.300549,65.281639 25.622522,59.581104 24.991791,53.436951 
	C25.492687,52.997551 25.946289,53.001774 26.739552,53.023277 
	C26.083176,59.903446 28.550543,66.023079 31.259224,72.476578 
	C29.918999,72.364410 27.494556,75.719002 26.981434,71.345779 
z"/>
<path fill="#DFE4ED" opacity="1.000000" stroke="none" 
	d="
M183.140961,87.686020 
	C184.830200,85.734009 185.869492,85.832481 186.078430,88.680161 
	C184.364395,91.160858 182.063477,93.269394 187.231979,95.685295 
	C181.902893,95.685295 178.089859,95.685295 175.077271,95.685295 
	C177.529282,93.341454 180.306747,90.686508 183.140961,87.686020 
z"/>
<path fill="#203170" opacity="1.000000" stroke="none" 
	d="
M205.977142,77.678726 
	C199.877884,73.753502 194.224335,69.094223 192.589706,60.943008 
	C196.501785,65.240524 200.413849,69.538040 204.657700,73.907852 
	C205.315338,75.095840 205.641190,76.211548 205.977142,77.678726 
z"/>
<path fill="#E3EAF1" opacity="1.000000" stroke="none" 
	d="
M56.546192,88.972610 
	C56.668373,87.199928 57.124451,85.503853 57.932819,82.497673 
	C60.694393,85.140007 62.828552,87.182007 64.913879,89.585922 
	C61.826851,92.994171 59.511536,89.617165 56.546192,88.972610 
z"/>
<path fill="#E6EBF1" opacity="1.000000" stroke="none" 
	d="
M130.114395,231.452789 
	C130.692459,230.509964 131.254349,229.768768 131.827515,229.012726 
	C133.692871,230.077850 135.510803,231.115921 137.687881,232.079773 
	C138.047012,232.005569 137.996613,232.004913 137.943420,232.283890 
	C138.216629,232.800247 138.543045,233.037628 138.869461,233.275009 
	C137.169449,237.528915 135.614380,237.607971 129.789062,233.137482 
	C129.888458,232.352524 129.881683,232.172104 129.874908,231.991669 
	C129.874908,231.991669 130.098236,231.654404 130.114395,231.452789 
z"/>
<path fill="#C8CEDE" opacity="1.000000" stroke="none" 
	d="
M116.625801,232.240051 
	C117.461388,237.166733 113.306755,241.460022 108.769592,240.962616 
	C107.857399,240.862610 106.890167,241.264679 106.738602,241.292130 
	C109.769615,238.374054 113.043304,235.222336 116.625801,232.240051 
z"/>
<path fill="#203170" opacity="1.000000" stroke="none" 
	d="
M66.948456,80.793037 
	C60.552345,77.107086 55.554279,72.028831 53.535641,63.628159 
	C58.322529,69.007439 62.489433,73.690002 66.838615,78.650154 
	C67.004082,79.425247 66.987267,79.922768 66.948456,80.793037 
z"/>
<path fill="#324078" opacity="1.000000" stroke="none" 
	d="
M143.020721,219.922516 
	C137.258453,216.927414 134.170532,212.001740 132.912918,204.818329 
	C136.935791,209.764908 140.405579,214.031433 144.008789,218.610931 
	C143.814072,219.164093 143.485947,219.404282 143.020721,219.922516 
z"/>
<path fill="#E7ECF3" opacity="1.000000" stroke="none" 
	d="
M189.417587,89.041206 
	C189.540482,87.143959 190.003540,85.319824 190.625290,82.870621 
	C193.454712,85.015701 195.637375,86.670433 197.916748,88.664284 
	C195.331909,94.276558 192.512131,89.261932 189.417587,89.041206 
z"/>
<path fill="#E9EDF3" opacity="1.000000" stroke="none" 
	d="
M20.272285,40.022045 
	C24.757137,37.356991 23.942362,41.545887 25.069168,43.648720 
	C24.945803,44.582001 24.758789,45.145687 24.382671,46.303169 
	C23.463020,47.287479 22.732477,47.678001 22.001934,48.068523 
	C21.201925,46.833134 20.401917,45.597740 19.322655,43.793457 
	C19.093410,42.478168 19.143414,41.731773 19.193417,40.985374 
	C19.482489,40.731178 19.771561,40.476982 20.272285,40.022045 
z"/>
<path fill="#E3E7EF" opacity="1.000000" stroke="none" 
	d="
M93.027054,186.564484 
	C94.255928,185.621536 95.414917,185.043213 97.958328,183.774063 
	C97.958328,187.412170 97.969139,190.173965 97.868240,192.931671 
	C97.866516,192.979019 96.515099,192.976990 95.460976,192.856812 
	C94.404694,190.786789 93.680923,188.857941 93.027054,186.564484 
z"/>
<path fill="#DFE4ED" opacity="1.000000" stroke="none" 
	d="
M107.871033,175.707489 
	C104.739510,178.071884 101.696350,177.130661 98.379608,175.051239 
	C99.813072,171.088898 103.353745,171.243362 107.871033,175.707489 
z"/>
<path fill="#E3E7EF" opacity="1.000000" stroke="none" 
	d="
M115.679550,175.114807 
	C115.981339,177.651932 115.981339,180.400558 115.981339,183.245819 
	C113.446907,184.240555 111.815887,184.305420 111.673286,180.977951 
	C111.597069,179.199234 110.954399,177.444778 110.789253,175.305237 
	C112.466675,175.062820 113.922211,175.194550 115.679550,175.114807 
z"/>
<path fill="#E6EBF1" opacity="1.000000" stroke="none" 
	d="
M20.002171,31.572502 
	C22.033655,31.549902 23.954180,31.854048 25.874702,32.158192 
	C25.999720,32.682529 26.124737,33.206871 26.249754,33.731209 
	C23.922728,35.208115 21.595699,36.685020 19.049128,38.417450 
	C19.183456,36.415070 19.537333,34.157158 20.002171,31.572502 
z"/>
<path fill="#E9EDF3" opacity="1.000000" stroke="none" 
	d="
M132.140717,192.737579 
	C127.648361,194.500671 129.255920,190.031036 129.336914,189.394379 
	C129.559631,187.643829 128.220993,183.647125 133.085114,185.211304 
	C133.772430,185.711136 134.148834,186.150864 134.703735,187.151428 
	C134.806412,188.430893 134.730560,189.149506 134.654694,189.868134 
	C133.861816,190.737061 133.068924,191.605972 132.140717,192.737579 
z"/>
<path fill="#F0F3F6" opacity="1.000000" stroke="none" 
	d="
M40.681816,30.316708 
	C41.623154,30.823788 42.778069,31.633535 42.761978,32.419308 
	C42.726116,34.170807 42.105213,35.910320 41.729805,37.656372 
	C38.319283,37.868927 38.319283,37.868927 37.710819,29.913448 
	C38.808823,29.993071 39.586418,30.300781 40.681816,30.316708 
z"/>
<path fill="#E6EBF1" opacity="1.000000" stroke="none" 
	d="
M135.337311,183.918152 
	C133.719040,183.395645 132.291260,182.943390 131.198807,182.071121 
	C129.682358,180.860336 126.627167,179.862625 129.945068,176.996109 
	C130.756042,176.775040 131.322037,176.717682 132.345490,176.689301 
	C133.201477,176.814468 133.599976,176.910675 133.998489,177.006882 
	C134.558121,179.271606 135.117737,181.536316 135.337311,183.918152 
z"/>
<path fill="#E7ECF3" opacity="1.000000" stroke="none" 
	d="
M191.111069,47.520966 
	C186.787354,46.528633 188.431168,43.578331 188.855225,40.918053 
	C189.289429,38.194202 190.672546,38.744576 192.630798,39.918968 
	C195.103928,43.079037 193.087997,45.136051 191.111069,47.520966 
z"/>
<path fill="#E6EBF1" opacity="1.000000" stroke="none" 
	d="
M153.464676,39.589584 
	C154.842102,40.147240 156.574875,40.785645 156.951111,41.887321 
	C157.469910,43.406452 156.964584,45.275326 156.927704,47.431999 
	C151.980530,46.164894 151.131317,44.351185 153.464676,39.589584 
z"/>
<path fill="#E3E7EF" opacity="1.000000" stroke="none" 
	d="
M152.889847,31.393459 
	C154.815872,31.438469 156.606857,31.808271 158.397827,32.178074 
	C158.515610,32.732407 158.633392,33.286743 158.751190,33.841076 
	C156.539291,35.295132 154.327393,36.749187 151.907867,38.490490 
	C152.051758,36.424576 152.403275,34.071419 152.889847,31.393459 
z"/>
<path fill="#E3EAF1" opacity="1.000000" stroke="none" 
	d="
M194.518677,38.572243 
	C191.894196,37.151058 189.517975,35.492668 187.141739,33.834274 
	C187.236557,33.346405 187.331375,32.858532 187.426193,32.370663 
	C188.983673,31.943731 190.541153,31.516802 192.490265,31.171274 
	C193.510239,33.613464 194.138580,35.974251 194.518677,38.572243 
z"/>
<path fill="#E3E7EF" opacity="1.000000" stroke="none" 
	d="
M129.915039,174.474884 
	C123.994324,177.489441 123.238098,177.567383 119.988747,175.425690 
	C120.018478,174.996521 120.231239,174.857010 120.505035,174.587723 
	C121.205742,173.887650 121.632645,173.456863 122.059540,173.026093 
	C124.676422,173.391235 127.293312,173.756409 129.915039,174.474884 
z"/>
<path fill="#E7ECF3" opacity="1.000000" stroke="none" 
	d="
M62.007187,34.693748 
	C62.088673,35.924259 62.023731,36.870224 61.886810,38.864590 
	C58.937897,36.959068 56.554539,35.418995 52.847355,33.023495 
	C56.007690,32.020077 57.589108,31.517973 59.569633,31.050718 
	C60.599415,32.193447 61.230083,33.301323 62.007187,34.693748 
z"/>
<path fill="#DAE0EA" opacity="1.000000" stroke="none" 
	d="
M176.675262,88.738892 
	C174.040085,93.551819 171.055191,97.186508 164.768021,95.396545 
	C165.255966,94.860069 165.634705,94.075096 166.029480,94.066940 
	C169.770172,93.989677 172.152130,92.146111 173.605927,88.778313 
	C174.352539,87.048759 175.368698,85.460907 176.675262,88.738892 
z"/>
<path fill="#E3E7EF" opacity="1.000000" stroke="none" 
	d="
M93.771667,177.042053 
	C95.679024,177.064575 97.386230,177.328690 99.093430,177.592804 
	C99.292503,178.156281 99.491570,178.719757 99.690636,179.283249 
	C97.567978,180.609360 95.445312,181.935486 93.146759,183.571167 
	C92.565407,183.765091 92.159943,183.649414 91.786545,182.889893 
	C91.889481,181.496017 91.960335,180.745972 92.031189,179.995941 
	C92.544632,179.091843 93.058083,178.187744 93.771667,177.042053 
z"/>
<path fill="#F3F5F8" opacity="1.000000" stroke="none" 
	d="
M175.630798,29.063114 
	C175.535141,31.486399 175.388290,33.998199 174.681824,36.341263 
	C174.402924,37.266312 172.877228,37.815437 171.568329,38.799587 
	C170.903183,35.907684 170.432327,33.860584 169.872711,31.427511 
	C171.214890,31.163948 172.418533,30.927589 173.803558,30.341431 
	C174.441803,29.689104 174.898651,29.386578 175.630798,29.063114 
z"/>
<path fill="#E9EDF3" opacity="1.000000" stroke="none" 
	d="
M56.798172,28.568165 
	C53.269741,29.989309 49.613064,31.105856 44.973946,32.522385 
	C45.931366,30.880243 46.320480,30.212851 46.832169,29.263954 
	C50.000137,26.134558 53.239578,25.909098 56.798172,28.568165 
z"/>
<path fill="#E9EDF3" opacity="1.000000" stroke="none" 
	d="
M188.850357,27.834408 
	C186.700974,31.920801 182.791061,31.187878 179.058411,31.035839 
	C179.089722,30.709038 179.121033,30.382236 179.221863,29.700714 
	C179.291382,29.345993 179.261475,29.326218 179.531189,29.215714 
	C179.985672,28.792929 180.170441,28.480646 180.355209,28.168365 
	C183.078613,28.018896 185.802032,27.869427 188.850357,27.834408 
z"/>
<path fill="#E9EDF3" opacity="1.000000" stroke="none" 
	d="
M57.897259,47.910248 
	C53.653976,45.259323 55.608444,42.202095 57.126896,38.936199 
	C59.900383,39.767273 61.928493,40.806145 60.798050,44.477669 
	C60.208717,45.397575 59.716465,45.932167 58.848579,46.775185 
	C58.269157,47.358913 58.065365,47.634224 57.861572,47.909531 
	C57.861576,47.909534 57.909222,47.934772 57.897259,47.910248 
z"/>
<path fill="#EBEFF4" opacity="1.000000" stroke="none" 
	d="
M165.520966,28.507446 
	C166.079422,29.471432 166.631180,30.417269 167.734665,32.308914 
	C163.469116,31.029316 160.154526,30.034992 156.485535,28.909298 
	C156.631195,28.317009 157.131302,27.856092 158.161407,27.222946 
	C159.118546,26.896969 159.545639,26.743223 159.972748,26.589478 
	C160.428436,26.604149 160.884125,26.618818 161.980713,26.777916 
	C163.067398,26.975334 163.513184,27.028326 163.958969,27.081318 
	C163.958969,27.081316 163.975372,26.999861 164.089661,27.257618 
	C164.631485,27.831013 165.059006,28.146648 165.486542,28.462282 
	C165.486542,28.462282 165.514267,28.489300 165.520966,28.507446 
z"/>
<path fill="#E3E7EF" opacity="1.000000" stroke="none" 
	d="
M33.520233,31.559452 
	C30.358852,30.720135 27.197474,29.880819 23.676523,28.964230 
	C23.800858,28.457327 24.284761,28.027697 25.177395,27.371950 
	C25.727695,27.048590 25.869270,26.951344 26.010843,26.854095 
	C27.073570,26.807919 28.136295,26.761740 29.823708,26.868141 
	C30.623024,27.031900 30.797657,27.043077 30.972290,27.054256 
	C30.972290,27.054256 30.987371,26.994932 31.132093,27.268547 
	C31.794025,27.844294 32.311234,28.146427 32.828445,28.448559 
	C32.893162,28.721512 33.049301,28.923944 33.486206,29.108002 
	C33.829243,29.495554 33.982937,29.830961 34.018021,30.641525 
	C33.773022,31.264273 33.646626,31.411863 33.520233,31.559452 
z"/>
<path fill="#213270" opacity="1.000000" stroke="none" 
	d="
M22.254810,48.321991 
	C22.732477,47.678001 23.463020,47.287479 24.405647,46.600235 
	C23.914379,47.060829 23.211031,47.818146 22.254810,48.321991 
z"/>
<path fill="#213270" opacity="1.000000" stroke="none" 
	d="
M18.914352,41.148769 
	C19.143414,41.731773 19.093410,42.478168 19.059402,43.600025 
	C18.928698,43.087711 18.781994,42.199936 18.914352,41.148769 
z"/>
<path fill="#203170" opacity="1.000000" stroke="none" 
	d="
M91.796082,180.158691 
	C91.960335,180.745972 91.889481,181.496017 91.657333,182.588181 
	C91.517685,182.060684 91.539330,181.191055 91.796082,180.158691 
z"/>
<path fill="#203170" opacity="1.000000" stroke="none" 
	d="
M134.957169,189.763794 
	C134.730560,189.149506 134.806412,188.430893 134.914398,187.351761 
	C135.050888,187.880646 135.155258,188.770050 134.957169,189.763794 
z"/>
<path fill="#203170" opacity="1.000000" stroke="none" 
	d="
M204.921707,69.917908 
	C204.559753,69.420135 204.247528,68.563011 203.977661,67.353287 
	C204.337158,67.853302 204.654297,68.705925 204.921707,69.917908 
z"/>
<path fill="#DAE0EA" opacity="1.000000" stroke="none" 
	d="
M123.021271,227.395050 
	C123.294426,227.287872 123.637100,227.424225 123.976074,227.800812 
	C123.678513,227.906876 123.384644,227.772720 123.021271,227.395050 
z"/>
<path fill="#223271" opacity="1.000000" stroke="none" 
	d="
M165.513031,28.142250 
	C165.059006,28.146648 164.631485,27.831013 164.062424,27.288998 
	C164.460449,27.315817 164.999985,27.569017 165.513031,28.142250 
z"/>
<path fill="#223271" opacity="1.000000" stroke="none" 
	d="
M163.852951,26.852465 
	C163.513184,27.028326 163.067398,26.975334 162.322540,26.764652 
	C162.597961,26.612511 163.172455,26.618061 163.852951,26.852465 
z"/>
<path fill="#203170" opacity="1.000000" stroke="none" 
	d="
M205.495270,72.806793 
	C205.197388,72.548409 205.076721,72.112099 204.995392,71.334915 
	C205.247314,71.538979 205.459900,72.083923 205.495270,72.806793 
z"/>
<path fill="#273672" opacity="1.000000" stroke="none" 
	d="
M72.986008,77.689896 
	C72.607513,77.607933 72.213554,77.214325 71.745651,76.545822 
	C72.104652,76.640030 72.537598,77.009140 72.986008,77.689896 
z"/>
<path fill="#223271" opacity="1.000000" stroke="none" 
	d="
M159.782257,26.426022 
	C159.545639,26.743223 159.118546,26.896969 158.348297,27.041840 
	C158.534012,26.776167 159.062897,26.519367 159.782257,26.426022 
z"/>
<path fill="#203170" opacity="1.000000" stroke="none" 
	d="
M121.712448,173.049362 
	C121.632645,173.456863 121.205742,173.887650 120.508133,174.460541 
	C120.613411,174.092636 120.989388,173.582642 121.712448,173.049362 
z"/>
<path fill="#203170" opacity="1.000000" stroke="none" 
	d="
M142.264954,232.770874 
	C142.807983,232.647079 143.477051,232.910080 144.393234,233.436462 
	C143.890564,233.519119 143.140762,233.338409 142.264954,232.770874 
z"/>
<path fill="#213270" opacity="1.000000" stroke="none" 
	d="
M32.750572,28.125713 
	C32.311234,28.146427 31.794025,27.844294 31.110909,27.290718 
	C31.520903,27.293806 32.096802,27.548338 32.750572,28.125713 
z"/>
<path fill="#203170" opacity="1.000000" stroke="none" 
	d="
M138.753540,232.846710 
	C138.543045,233.037628 138.216629,232.800247 137.949875,232.259323 
	C138.009537,231.955780 137.997101,231.868820 138.007309,231.826187 
	C138.224213,231.995163 138.430908,232.206772 138.753540,232.846710 
z"/>
<path fill="#203170" opacity="1.000000" stroke="none" 
	d="
M129.718994,232.061829 
	C129.881683,232.172104 129.888458,232.352524 129.742523,232.756699 
	C129.507889,232.783951 129.401672,232.592667 129.357910,232.388031 
	C129.343430,232.320389 129.490097,232.218323 129.718994,232.061829 
z"/>
<path fill="#223271" opacity="1.000000" stroke="none" 
	d="
M180.067688,28.237259 
	C180.170441,28.480646 179.985672,28.792929 179.546967,29.214619 
	C179.455399,28.984735 179.617783,28.645445 180.067688,28.237259 
z"/>
<path fill="#223271" opacity="1.000000" stroke="none" 
	d="
M195.749664,51.114342 
	C195.505707,51.236870 195.190414,51.069221 194.750916,50.659813 
	C194.977249,50.553421 195.327789,50.688789 195.749664,51.114342 
z"/>
<path fill="#213270" opacity="1.000000" stroke="none" 
	d="
M25.882658,26.719404 
	C25.869270,26.951344 25.727695,27.048590 25.329086,27.164104 
	C25.299524,26.983154 25.526999,26.783934 25.882658,26.719404 
z"/>
<path fill="#213270" opacity="1.000000" stroke="none" 
	d="
M58.115959,47.846428 
	C58.065365,47.634224 58.269157,47.358913 58.731094,47.025421 
	C58.782940,47.239265 58.576641,47.511295 58.115959,47.846428 
z"/>
<path fill="#E3E7EF" opacity="1.000000" stroke="none" 
	d="
M111.140724,174.730103 
	C110.828247,175.056778 110.590836,175.119064 110.353424,175.181366 
	C110.347717,174.812775 110.342003,174.444199 110.678513,174.013702 
	C111.085754,174.123108 111.150772,174.294403 111.140724,174.730103 
z"/>
<path fill="#DCE2EB" opacity="1.000000" stroke="none" 
	d="
M161.971039,52.824780 
	C161.892044,52.971527 161.672684,52.997833 161.127518,52.961784 
	C161.144699,52.834396 161.487671,52.769367 161.971039,52.824780 
z"/>
<path fill="#273672" opacity="1.000000" stroke="none" 
	d="
M201.565033,80.146553 
	C201.565033,80.146553 201.893066,80.350357 201.933411,80.539200 
	C201.948578,80.999512 201.923401,81.270981 201.853546,81.948891 
	C201.400925,82.239555 200.992950,82.123787 200.733215,81.462173 
	C201.109314,80.659737 201.337173,80.403145 201.565033,80.146553 
z"/>
<path fill="#203170" opacity="1.000000" stroke="none" 
	d="
M133.799332,176.747406 
	C133.599976,176.910675 133.201477,176.814468 132.571594,176.512146 
	C132.760223,176.366653 133.180191,176.427292 133.799332,176.747406 
z"/>
<path fill="#213270" opacity="1.000000" stroke="none" 
	d="
M30.923927,26.877243 
	C30.797657,27.043077 30.623024,27.031900 30.224703,26.883289 
	C30.292530,26.730646 30.584047,26.715439 30.923927,26.877243 
z"/>
<path fill="#FDFEFE" opacity="1.000000" stroke="none" 
	d="
M382.038818,80.144127 
	C384.892822,91.597137 385.081787,102.594017 381.153900,113.428383 
	C377.061859,124.715508 369.644867,130.153717 357.776031,129.882065 
	C351.510376,129.738678 345.258026,128.609100 339.021729,127.762367 
	C335.957855,127.346375 334.746765,125.553528 334.771118,122.237000 
	C334.920288,101.927124 334.877075,81.615501 334.808777,61.304764 
	C334.799774,58.627895 335.301788,56.939465 338.381012,56.487553 
	C357.785217,53.639751 375.082733,57.791740 382.038818,80.144127 
z"/>
<path fill="#EBEFF4" opacity="1.000000" stroke="none" 
	d="
M117.538239,196.015259 
	C118.090469,190.211853 122.616585,190.835815 126.661652,190.634247 
	C127.736809,195.798035 127.736809,195.798035 119.405182,195.955536 
	C118.585220,196.000519 118.204544,196.008911 117.538239,196.015259 
z"/>
<path fill="#DCE2EB" opacity="1.000000" stroke="none" 
	d="
M159.394943,41.053734 
	C158.177780,37.620552 158.569214,34.689968 162.070908,34.046154 
	C163.906342,33.708691 166.787628,34.698498 167.888504,36.109501 
	C168.766068,37.234291 168.366425,40.506157 167.291992,41.765488 
	C165.005051,44.446026 162.058472,44.138412 159.394943,41.053734 
z"/>
<path fill="#E9EDF3" opacity="1.000000" stroke="none" 
	d="
M186.752670,40.534698 
	C184.308411,41.890804 182.036240,42.859142 179.764069,43.827480 
	C179.463226,43.363033 179.162369,42.898582 178.861511,42.434135 
	C180.735626,39.743416 175.335739,34.569729 181.819504,33.749641 
	C185.781281,33.248543 187.858109,35.896671 186.752670,40.534698 
z"/>
<path fill="#E6EBF1" opacity="1.000000" stroke="none" 
	d="
M171.288467,49.619034 
	C170.598389,47.895287 169.641266,46.497452 169.667755,45.118507 
	C169.695526,43.672646 170.367554,41.962856 171.347015,40.923431 
	C171.868317,40.370209 174.170761,40.537159 174.719666,41.184380 
	C175.627335,42.254635 176.360901,44.096703 176.097351,45.396500 
	C175.651459,47.595768 174.370605,49.625748 173.253479,52.150143 
	C172.555634,51.298260 172.004730,50.625751 171.288467,49.619034 
z"/>
<path fill="#DCE2EB" opacity="1.000000" stroke="none" 
	d="
M178.359650,50.890221 
	C177.568222,51.006912 177.187241,51.025185 176.520203,51.039467 
	C177.115753,49.124641 177.997375,47.213810 178.887024,45.285595 
	C181.287720,45.285595 183.498688,45.285595 185.993088,45.285595 
	C187.510971,48.202484 186.783691,50.084892 183.182663,50.530289 
	C181.723343,50.710781 180.241638,50.710052 178.359650,50.890221 
z"/>
<path fill="#DAE0EA" opacity="1.000000" stroke="none" 
	d="
M52.408272,42.651730 
	C49.886543,42.583977 46.938595,43.003693 45.775299,41.757484 
	C44.617222,40.516869 44.453537,37.149673 45.353683,35.569107 
	C46.060932,34.327255 49.314339,33.580147 50.950245,34.111347 
	C52.372433,34.573147 53.457661,37.025333 54.017822,38.809536 
	C54.323231,39.782322 53.227795,41.194901 52.408272,42.651730 
z"/>
<path fill="#E3E7EF" opacity="1.000000" stroke="none" 
	d="
M28.677979,34.070576 
	C31.202511,34.698513 33.835903,34.936905 35.282166,36.371819 
	C36.109169,37.192329 35.630882,40.511269 34.590591,41.694515 
	C33.573853,42.850964 30.982473,43.344574 29.282684,43.033665 
	C25.343454,42.313145 24.935345,37.815899 28.677979,34.070576 
z"/>
<path fill="#E7ECF3" opacity="1.000000" stroke="none" 
	d="
M43.623474,42.650467 
	C42.871265,45.905884 41.938580,48.830639 41.005890,51.755398 
	C40.550045,51.780956 40.094200,51.806515 39.638351,51.832069 
	C39.392330,48.274685 34.087929,46.031940 37.596180,41.620979 
	C39.478344,39.254520 41.718929,40.123947 43.623474,42.650467 
z"/>
<path fill="#DCE2EB" opacity="1.000000" stroke="none" 
	d="
M48.379143,45.466717 
	C50.196026,45.417587 51.643589,45.259308 53.506554,45.055607 
	C54.508793,53.869823 46.840717,48.640862 44.572079,51.627628 
	C44.123356,51.165020 43.674637,50.702412 43.225914,50.239803 
	C44.820549,48.612392 46.415188,46.984982 48.379143,45.466717 
z"/>
<path fill="#E3E7EF" opacity="1.000000" stroke="none" 
	d="
M34.101929,30.907053 
	C34.436752,31.023329 34.569061,31.349234 34.701366,31.675138 
	C34.455837,31.726950 34.210312,31.778759 33.742508,31.695011 
	C33.646626,31.411863 33.773022,31.264273 34.101929,30.907053 
z"/>
<path fill="#E7ECF3" opacity="1.000000" stroke="none" 
	d="
M99.654648,185.405472 
	C100.924446,183.008240 101.999794,180.425781 103.936073,179.149933 
	C104.693855,178.650635 108.333130,180.724380 108.923050,182.283478 
	C109.497398,183.801407 108.435585,186.870605 107.059143,188.002609 
	C104.088676,190.445557 101.627495,188.492493 99.654648,185.405472 
z"/>
<path fill="#E3E7EF" opacity="1.000000" stroke="none" 
	d="
M118.507576,186.212128 
	C119.196777,183.648514 119.768112,181.115128 121.235733,179.310715 
	C121.764801,178.660233 124.848915,179.239426 126.060104,180.173798 
	C128.382202,181.965210 129.121017,184.521194 126.744942,187.054947 
	C123.881760,190.108109 121.231087,189.451309 118.507576,186.212128 
z"/>
<path fill="#EBEFF4" opacity="1.000000" stroke="none" 
	d="
M116.843246,191.472397 
	C115.930153,193.612534 115.132523,195.361191 113.824730,198.228271 
	C112.552673,195.396164 111.433525,193.647491 111.018242,191.745148 
	C110.685112,190.219177 110.750656,188.226013 111.517975,186.982300 
	C111.979431,186.234344 114.812820,185.890472 115.363907,186.487579 
	C116.371521,187.579391 116.476990,189.503769 116.843246,191.472397 
z"/>
<path fill="#273672" opacity="1.000000" stroke="none" 
	d="
M200.492371,81.253342 
	C193.549026,77.512474 188.524231,72.271614 186.621017,64.324257 
	C191.607147,69.582336 196.383728,74.619453 201.362671,79.901566 
	C201.337173,80.403145 201.109314,80.659737 200.492371,81.253342 
z"/>
</svg>